<svg xmlns="http://www.w3.org/2000/svg" id="Layer_2" data-name="Layer 2" viewBox="0 0 227.9 41.79"><defs><style>      .cls-1 {        fill: #412058;      }      .cls-2 {        fill: #ef3c5f;      }      .cls-3 {        fill: #422058;      }    </style></defs><g id="Layer_1-2" data-name="Layer 1"><g><g><path class="cls-1" d="M51.98,29.41V8.41h3.78v11.61h.54l4.92-5.49h4.92l-6.87,7.2,7.11,7.68h-4.86l-5.22-5.91h-.54v5.91h-3.78Z"></path><path class="cls-1" d="M74.03,29.83c-1.48,0-2.79-.31-3.92-.95-1.13-.63-2.01-1.52-2.64-2.67-.63-1.15-.95-2.5-.95-4.06v-.36c0-1.56.31-2.92.93-4.06.62-1.15,1.49-2.04,2.61-2.67,1.12-.63,2.42-.94,3.9-.94s2.73.33,3.81.97c1.08.65,1.92,1.55,2.52,2.7.6,1.15.9,2.49.9,4v1.29h-10.83c.04,1.02.42,1.85,1.14,2.49.72.64,1.6.96,2.64.96s1.84-.23,2.34-.69c.5-.46.88-.97,1.14-1.53l3.09,1.62c-.28.52-.69,1.09-1.21,1.7-.53.61-1.24,1.13-2.12,1.56-.88.43-2,.64-3.36.64ZM70.4,20.26h6.96c-.08-.86-.42-1.55-1.04-2.07s-1.41-.78-2.38-.78-1.83.26-2.43.78c-.6.52-.97,1.21-1.11,2.07Z"></path><path class="cls-1" d="M90.59,29.83c-1.48,0-2.79-.31-3.92-.95-1.13-.63-2.01-1.52-2.64-2.67-.63-1.15-.95-2.5-.95-4.06v-.36c0-1.56.31-2.92.93-4.06.62-1.15,1.49-2.04,2.61-2.67,1.12-.63,2.42-.94,3.9-.94s2.73.33,3.81.97c1.08.65,1.92,1.55,2.52,2.7.6,1.15.9,2.49.9,4v1.29h-10.83c.04,1.02.42,1.85,1.14,2.49.72.64,1.6.96,2.64.96s1.84-.23,2.34-.69c.5-.46.88-.97,1.14-1.53l3.09,1.62c-.28.52-.69,1.09-1.21,1.7-.53.61-1.24,1.13-2.12,1.56-.88.43-2,.64-3.36.64ZM86.96,20.26h6.96c-.08-.86-.42-1.55-1.04-2.07s-1.41-.78-2.38-.78-1.83.26-2.43.78c-.6.52-.97,1.21-1.11,2.07Z"></path><path class="cls-1" d="M100.37,35.41V14.53h3.72v1.8h.54c.34-.58.87-1.09,1.59-1.54s1.75-.67,3.09-.67c1.2,0,2.31.29,3.33.88,1.02.59,1.84,1.46,2.46,2.59.62,1.14.93,2.52.93,4.14v.48c0,1.62-.31,3-.93,4.14-.62,1.14-1.44,2-2.46,2.59-1.02.59-2.13.88-3.33.88-.9,0-1.66-.1-2.26-.31-.61-.21-1.1-.48-1.47-.81s-.67-.67-.88-1h-.54v7.71h-3.78ZM108.17,26.53c1.18,0,2.15-.38,2.92-1.12.77-.75,1.16-1.84,1.16-3.29v-.3c0-1.44-.39-2.54-1.17-3.29-.78-.75-1.75-1.12-2.91-1.12s-2.13.38-2.91,1.12c-.78.75-1.17,1.84-1.17,3.29v.3c0,1.44.39,2.54,1.17,3.29.78.75,1.75,1.12,2.91,1.12Z"></path><path class="cls-1" d="M118.76,29.41V8.41h3.78v21h-3.78Z"></path><path class="cls-1" d="M132.77,29.83c-1.48,0-2.79-.31-3.92-.95-1.13-.63-2.01-1.52-2.64-2.67-.63-1.15-.95-2.5-.95-4.06v-.36c0-1.56.31-2.92.93-4.06.62-1.15,1.49-2.04,2.61-2.67,1.12-.63,2.42-.94,3.9-.94s2.73.33,3.81.97c1.08.65,1.92,1.55,2.52,2.7.6,1.15.9,2.49.9,4v1.29h-10.83c.04,1.02.42,1.85,1.14,2.49.72.64,1.6.96,2.64.96s1.84-.23,2.34-.69c.5-.46.88-.97,1.14-1.53l3.09,1.62c-.28.52-.69,1.09-1.21,1.7-.53.61-1.24,1.13-2.12,1.56-.88.43-2,.64-3.36.64ZM129.14,20.26h6.96c-.08-.86-.42-1.55-1.04-2.07s-1.41-.78-2.38-.78-1.83.26-2.43.78c-.6.52-.97,1.21-1.11,2.07Z"></path><path class="cls-1" d="M147.17,29.83c-1.06,0-2.01-.19-2.85-.55-.84-.37-1.5-.91-2-1.62s-.74-1.58-.74-2.59.25-1.88.74-2.57,1.17-1.21,2.04-1.56,1.86-.53,2.99-.53h4.08v-.84c0-.7-.22-1.28-.66-1.73-.44-.45-1.14-.67-2.1-.67s-1.64.22-2.1.65-.76.99-.9,1.67l-3.48-1.17c.24-.76.62-1.46,1.15-2.08.53-.63,1.24-1.14,2.13-1.53.89-.39,1.97-.58,3.25-.58,1.96,0,3.51.49,4.65,1.47,1.14.98,1.71,2.4,1.71,4.26v5.55c0,.6.28.9.84.9h1.2v3.12h-2.52c-.74,0-1.35-.18-1.83-.54-.48-.36-.72-.84-.72-1.44v-.03h-.57c-.08.24-.26.55-.54.94-.28.39-.72.74-1.32,1.04-.6.3-1.42.45-2.46.45ZM147.83,26.77c1.06,0,1.92-.29,2.59-.89.67-.59,1.01-1.37,1.01-2.35v-.3h-3.81c-.7,0-1.25.15-1.65.45-.4.3-.6.72-.6,1.26s.21.98.63,1.32c.42.34,1.03.51,1.83.51Z"></path><path class="cls-1" d="M159.14,29.41v-14.88h3.72v1.68h.54c.22-.6.58-1.04,1.09-1.32s1.1-.42,1.79-.42h1.8v3.36h-1.86c-.96,0-1.75.25-2.37.76-.62.51-.93,1.3-.93,2.36v8.46h-3.78Z"></path><path class="cls-1" d="M170.27,29.41v-14.88h3.72v1.95h.54c.24-.52.69-1.02,1.35-1.49s1.66-.71,3-.71c1.16,0,2.17.27,3.04.79.87.53,1.54,1.26,2.03,2.19.48.93.72,2.01.72,3.25v8.88h-3.78v-8.58c0-1.12-.27-1.96-.83-2.52-.55-.56-1.33-.84-2.35-.84-1.16,0-2.06.39-2.7,1.16-.64.77-.96,1.84-.96,3.23v7.56h-3.78Z"></path><path class="cls-1" d="M189.89,12.79c-.68,0-1.26-.22-1.73-.66-.47-.44-.71-1.02-.71-1.74s.24-1.3.71-1.74,1.04-.66,1.73-.66,1.28.22,1.74.66c.46.44.69,1.02.69,1.74s-.23,1.3-.69,1.74c-.46.44-1.04.66-1.74.66ZM188,29.41v-14.88h3.78v14.88h-3.78Z"></path><path class="cls-1" d="M195.23,29.41v-14.88h3.72v1.95h.54c.24-.52.69-1.02,1.35-1.49s1.66-.71,3-.71c1.16,0,2.17.27,3.04.79.87.53,1.54,1.26,2.03,2.19.48.93.72,2.01.72,3.25v8.88h-3.78v-8.58c0-1.12-.27-1.96-.83-2.52-.55-.56-1.33-.84-2.35-.84-1.16,0-2.06.39-2.7,1.16-.64.77-.96,1.84-.96,3.23v7.56h-3.78Z"></path><path class="cls-1" d="M212.24,22.03v-.48c0-1.56.31-2.89.93-4,.62-1.11,1.45-1.96,2.48-2.55,1.03-.59,2.15-.88,3.38-.88,1.36,0,2.39.24,3.09.72.7.48,1.21.98,1.53,1.5h.54v-1.8h3.72v19.2c0,1.02-.3,1.83-.9,2.45-.6.61-1.4.92-2.4.92h-9.96v-3.3h8.64c.56,0,.84-.3.84-.9v-5.55h-.54c-.2.32-.48.65-.84.98s-.84.6-1.44.83c-.6.22-1.36.33-2.28.33-1.22,0-2.35-.29-3.38-.88-1.03-.59-1.86-1.44-2.48-2.55s-.93-2.45-.93-4ZM220.1,26.17c1.16,0,2.13-.37,2.91-1.11.78-.74,1.17-1.78,1.17-3.12v-.3c0-1.36-.39-2.41-1.16-3.14-.77-.73-1.75-1.09-2.92-1.09s-2.13.37-2.91,1.09c-.78.73-1.17,1.78-1.17,3.14v.3c0,1.34.39,2.38,1.17,3.12s1.75,1.11,2.91,1.11Z"></path></g><g><path class="cls-3" d="M.54,19.13c-.19,0-.34.15-.34.34v4.55c0,.19.15.34.34.34l14.18-.71c.32,0,.46.39.23.6L.12,37.55c-.15.13-.16.36-.02.5l3.6,3.6c.14.14.36.13.5-.01l13.54-14.64c.21-.23.6-.08.6.23l-.71,14.21c0,.19.15.34.34.34h4.55c.19,0,.34-.15.34-.34l-.71-21.26c0-.19-.15-.34-.34-.34l-21.26-.71Z"></path><path class="cls-2" d="M16.16,15.3h0c.39-.39.43-1,.1-1.44l-5.89-7.7s-.06-.08-.1-.11l-.76-.76c-.43-.43-1.12-.43-1.55,0l-1.82,1.82c-.43.43-.43,1.12,0,1.55l.76.76s.07.07.11.1l7.7,5.89c.44.33,1.05.29,1.44-.1Z"></path><path class="cls-2" d="M22.09,12.87h0c.55,0,1.01-.41,1.09-.95l1.28-9.61s0-.1,0-.14v-1.07c0-.6-.49-1.09-1.09-1.09h-2.57c-.6,0-1.09.49-1.09,1.09v1.07s0,.1,0,.14l1.28,9.61c.07.54.54.95,1.09.95Z"></path><path class="cls-2" d="M27.77,15.3h0c.39.39,1,.43,1.44.1l7.7-5.89s.08-.06.11-.1l.76-.76c.43-.43.43-1.12,0-1.55l-1.82-1.82c-.43-.43-1.12-.43-1.55,0l-.76.76s-.07.07-.1.11l-5.89,7.7c-.33.44-.29,1.05.1,1.44Z"></path><path class="cls-2" d="M29.5,21.46h0c0,.55.41,1.01.95,1.09l9.61,1.28s.1,0,.14,0h1.07c.6,0,1.09-.49,1.09-1.09v-2.57c0-.6-.49-1.09-1.09-1.09h-1.07s-.1,0-.14,0l-9.61,1.28c-.54.07-.95.54-.95,1.09Z"></path><path class="cls-2" d="M27.3,26.68h0c-.39.39-.43,1-.1,1.44l5.89,7.7s.06.08.1.11l.76.76c.43.43,1.12.43,1.55,0l1.82-1.82c.43-.43.43-1.12,0-1.55l-.76-.76s-.07-.07-.11-.1l-7.7-5.89c-.44-.33-1.05-.29-1.44.1Z"></path></g></g></g></svg>