<svg xmlns="http://www.w3.org/2000/svg" width="165" height="36" viewBox="0 0 165 36" fill="none"><path d="M27.9591 25.8762H18.3008V0H27.9591V25.8762Z" fill="#F6A40C"></path><path d="M18.2979 35.1848H9.14844V25.877H18.2979V35.1848Z" fill="#F6A40C"></path><path d="M9.15003 25.8757H0V16.5684H9.15003V25.8757Z" fill="#F6A40C"></path><path fill-rule="evenodd" clip-rule="evenodd" d="M161.075 28.7874V30.3187H162.16C162.581 30.3187 162.849 30.3071 162.962 30.2845C163.136 30.2525 163.278 30.1768 163.388 30.0559C163.497 29.9335 163.552 29.7722 163.552 29.5693C163.552 29.3964 163.51 29.2514 163.425 29.1316C163.342 29.0117 163.218 28.924 163.059 28.8699C162.901 28.8157 162.552 28.7874 162.021 28.7874H161.075H161.075ZM161.075 26.5219V27.8378H161.841C162.296 27.8378 162.58 27.8315 162.69 27.8178C162.89 27.7952 163.048 27.7274 163.162 27.6144C163.276 27.5014 163.333 27.3538 163.333 27.1704C163.333 26.9933 163.283 26.8514 163.185 26.741C163.086 26.6307 162.939 26.5634 162.745 26.5418C162.63 26.5287 162.295 26.5219 161.747 26.5219H161.076H161.075ZM159.902 25.5728H162.219C162.679 25.5728 163.021 25.5912 163.246 25.6285C163.473 25.6669 163.674 25.7452 163.852 25.8634C164.03 25.9832 164.179 26.1419 164.297 26.339C164.415 26.5371 164.476 26.7605 164.476 27.0064C164.476 27.2723 164.403 27.5182 164.257 27.7405C164.111 27.9639 163.913 28.1299 163.663 28.2419C164.016 28.3443 164.285 28.5172 164.476 28.7621C164.664 29.0065 164.759 29.2939 164.759 29.6245C164.759 29.8851 164.698 30.1384 164.575 30.3839C164.453 30.6293 164.285 30.8269 164.072 30.974C163.861 31.1196 163.599 31.2105 163.287 31.2452C163.093 31.2651 162.622 31.2788 161.876 31.2841H159.903V25.5728H159.902ZM154.965 29.4332L156.106 29.3218C156.175 29.6981 156.313 29.9734 156.522 30.15C156.731 30.3266 157.013 30.4143 157.368 30.4143C157.743 30.4143 158.026 30.3355 158.216 30.1794C158.406 30.0228 158.502 29.8389 158.502 29.6292C158.502 29.4936 158.462 29.3796 158.382 29.2834C158.302 29.1888 158.162 29.1063 157.962 29.0375C157.826 28.9897 157.515 28.9072 157.03 28.7879C156.406 28.6344 155.967 28.4447 155.714 28.2203C155.36 27.9055 155.183 27.5209 155.183 27.0679C155.183 26.7767 155.267 26.5024 155.432 26.2491C155.6 25.9948 155.841 25.8019 156.154 25.669C156.468 25.5365 156.846 25.4698 157.291 25.4698C158.016 25.4698 158.562 25.628 158.927 25.9459C159.295 26.2638 159.486 26.6864 159.505 27.2171L158.331 27.2571C158.281 26.9617 158.175 26.7505 158.011 26.6217C157.848 26.4924 157.603 26.4278 157.276 26.4278C156.939 26.4278 156.674 26.4972 156.484 26.6354C156.361 26.7242 156.299 26.843 156.299 26.9917C156.299 27.1273 156.357 27.2434 156.473 27.3385C156.621 27.4625 156.978 27.5902 157.546 27.7232C158.114 27.8546 158.534 27.9928 158.805 28.1336C159.078 28.276 159.291 28.4689 159.444 28.7148C159.598 28.9602 159.675 29.2635 159.675 29.624C159.675 29.9514 159.583 30.2583 159.399 30.5441C159.214 30.8295 158.954 31.0423 158.616 31.1811C158.279 31.3203 157.858 31.3897 157.355 31.3897C156.622 31.3897 156.06 31.2236 155.667 30.8899C155.275 30.5578 155.042 30.0722 154.964 29.4353L154.965 29.4332ZM153.431 29.1778L154.565 29.521C154.39 30.1495 154.1 30.6161 153.696 30.9225C153.291 31.2268 152.778 31.3797 152.156 31.3797C151.385 31.3797 150.753 31.1206 150.257 30.6019C149.762 30.0833 149.513 29.3749 149.513 28.4747C149.513 27.524 149.763 26.7852 150.261 26.2586C150.759 25.732 151.414 25.4688 152.226 25.4688C152.936 25.4688 153.512 25.6763 153.954 26.0894C154.219 26.3343 154.416 26.6848 154.548 27.1436L153.391 27.4152C153.322 27.1199 153.178 26.8861 152.962 26.7142C152.743 26.5429 152.478 26.4578 152.168 26.4578C151.738 26.4578 151.388 26.6096 151.121 26.9139C150.853 27.2171 150.719 27.709 150.719 28.3895C150.719 29.11 150.852 29.6245 151.115 29.9303C151.379 30.2378 151.722 30.3907 152.144 30.3907C152.456 30.3907 152.724 30.2935 152.948 30.098C153.172 29.9025 153.334 29.5966 153.431 29.1778ZM147.535 29.0186H145.947L146.729 26.9044L147.535 29.0186ZM149.68 31.2841L147.358 25.5728H146.118L143.868 31.2841H145.109L145.591 29.9839H147.915L148.416 31.2841H149.68H149.68ZM142.269 29.0186L141.464 26.9044L140.681 29.0186H142.269ZM144.414 31.2841H143.15L142.649 29.9839H140.325L139.843 31.2841H138.602L140.852 25.5728H142.092L144.414 31.2841H144.414Z" fill="white"></path><path fill-rule="evenodd" clip-rule="evenodd" d="M162.396 34.3626V32.9521H162.713C163.18 32.9521 163.489 33.2096 163.489 33.6532V33.6616C163.489 34.1088 163.179 34.3626 162.713 34.3626H162.396ZM161.616 35.0437H162.686C163.699 35.0437 164.29 34.4493 164.29 33.6495V33.6416C164.29 32.8413 163.707 32.2705 162.702 32.2705H161.616V35.0437ZM159.096 35.0437H161.38V34.3899H159.868V33.9501H161.219V33.3442H159.868V32.9243H161.359V32.27H159.096V35.0431V35.0437ZM157.292 35.0437H158.071V32.9443H158.915V32.2705H156.447V32.9443H157.291V35.0437H157.292ZM155.467 35.0437H156.251V32.2705H155.467V35.0437ZM153.317 34.3626V32.9521H153.634C154.101 32.9521 154.41 33.2096 154.41 33.6532V33.6616C154.41 34.1088 154.101 34.3626 153.634 34.3626H153.317ZM152.536 35.0437H153.606C154.619 35.0437 155.21 34.4493 155.21 33.6495V33.6416C155.21 32.8413 154.628 32.2705 153.622 32.2705H152.536V35.0437ZM150.016 35.0437H152.3V34.3899H150.789V33.9501H152.14V33.3442H150.789V32.9243H152.28V32.27H150.016V35.0431V35.0437ZM148.067 33.6017V32.9364H148.578C148.839 32.9364 149 33.0473 149 33.2653V33.2732C149 33.475 148.847 33.6017 148.582 33.6017H148.067ZM147.287 35.0437H148.067V34.2039H148.401H148.409L148.976 35.0437H149.876L149.205 34.0773C149.555 33.9306 149.784 33.6495 149.784 33.2254V33.2175C149.784 32.9443 149.699 32.7304 149.534 32.5717C149.345 32.3814 149.048 32.2705 148.618 32.2705H147.287V35.0437H147.287ZM145.869 35.0989C146.492 35.0989 146.85 34.8335 147.115 34.473L146.528 34.061C146.359 34.2628 146.187 34.3978 145.893 34.3978C145.499 34.3978 145.222 34.0731 145.222 33.6574V33.6495C145.222 33.2454 145.5 32.9164 145.893 32.9164C146.163 32.9164 146.348 33.043 146.509 33.2412L147.096 32.7934C146.846 32.4529 146.476 32.2154 145.901 32.2154C145.049 32.2154 144.418 32.8491 144.418 33.6574V33.6653C144.418 34.4935 145.065 35.0994 145.869 35.0994L145.869 35.0989ZM143.176 35.0989C142.372 35.0989 141.725 34.4929 141.725 33.6647V33.6568C141.725 32.8486 142.356 32.2148 143.208 32.2148C143.783 32.2148 144.153 32.4524 144.402 32.7929L143.815 33.2406C143.655 33.0425 143.47 32.9159 143.2 32.9159C142.806 32.9159 142.529 33.2443 142.529 33.649V33.6568C142.529 34.0725 142.806 34.3973 143.2 34.3973C143.493 34.3973 143.666 34.2628 143.835 34.0604L144.422 34.4724C144.157 34.8329 143.799 35.0983 143.176 35.0983L143.176 35.0989ZM139.992 33.9501L140.31 33.1618L140.624 33.9501H139.992ZM138.742 35.0431H139.563L139.764 34.5481H140.849L141.054 35.0431H141.89L140.692 32.2501H139.94L138.742 35.0431Z" fill="white"></path><path fill-rule="evenodd" clip-rule="evenodd" d="M156.145 7.95703V15.9149L164.23 23.8732V7.95703H156.145Z" fill="#3FBFAD"></path><path fill-rule="evenodd" clip-rule="evenodd" d="M156.14 0H139.969L148.055 7.95782H156.14V0Z" fill="#A5D400"></path><path fill-rule="evenodd" clip-rule="evenodd" d="M156.145 7.95782H164.23V0H156.145V7.95782Z" fill="white"></path><path fill-rule="evenodd" clip-rule="evenodd" d="M147.222 16.7384V8.78009L139.137 0.822266V16.7384H147.222Z" fill="#3FBFAD"></path><path fill-rule="evenodd" clip-rule="evenodd" d="M147.219 24.6981H163.39L155.305 16.7402H147.219V24.6981Z" fill="#A5D400"></path><path fill-rule="evenodd" clip-rule="evenodd" d="M139.137 24.6981H147.222V16.7402H139.137V24.6981Z" fill="white"></path><path d="M38.2865 22.0482C38.4379 22.1559 38.7602 22.3062 39.2526 22.499C39.7449 22.6919 40.3245 22.7881 40.9914 22.7881C41.522 22.7881 41.9575 22.6956 42.2984 22.5106C42.6394 22.3256 42.8967 22.0445 43.0713 21.6666C43.2454 21.2888 43.3632 20.7959 43.4236 20.1868C43.484 19.5782 43.5145 18.842 43.5145 17.9786V9.49315H47.2418V17.8399C47.2418 19.0727 47.1736 20.1978 47.0372 21.2152C46.9008 22.2326 46.6245 23.1149 46.2076 23.8622C45.7907 24.6095 45.1656 25.1802 44.3323 25.5728C43.499 25.9658 42.3852 26.1624 40.9914 26.1624C40.2796 26.1624 39.6354 26.0778 39.0599 25.908C38.4839 25.7383 37.9538 25.4839 37.4688 25.145L38.287 22.0466L38.2865 22.0482ZM53.8104 9.49368H57.8331L63.3788 25.9091H59.5601L58.31 22.2331H53.2871L52.0596 25.9091H48.2414L53.8099 9.49368H53.8104ZM57.6968 19.6203L55.8101 13.3084L53.8786 19.6203H57.6968ZM71.1749 26.0247C70.1143 26.0247 69.1141 25.8203 68.1744 25.4119C67.2347 25.0036 66.4092 24.4256 65.6968 23.6783C64.9849 22.931 64.4275 22.0445 64.0261 21.0192C63.6247 19.9945 63.4238 18.8499 63.4238 17.5855C63.4238 16.4451 63.6284 15.3815 64.0375 14.3951C64.4467 13.4082 65.0149 12.5374 65.7423 11.7823C66.4697 11.0266 67.3221 10.4375 68.2989 10.0134C69.2764 9.58932 70.3333 9.37754 71.4698 9.37754C72.9545 9.37754 74.2657 9.70126 75.4017 10.3487C76.5382 10.9961 77.3787 11.8669 77.9248 12.9615L75.1516 15.0888C74.788 14.3646 74.2615 13.7939 73.5719 13.3777C72.8827 12.9615 72.1363 12.7534 71.3329 12.7534C70.7265 12.7534 70.1701 12.8806 69.6623 13.1349C69.1544 13.3893 68.7148 13.7435 68.3439 14.1986C67.9725 14.6532 67.6888 15.1813 67.4915 15.7825C67.2947 16.3837 67.196 17.0311 67.196 17.7248C67.196 18.4337 67.3019 19.089 67.5142 19.6897C67.7265 20.2908 68.022 20.8111 68.4007 21.2504C68.7794 21.6898 69.2304 22.0329 69.7532 22.2794C70.276 22.5258 70.8551 22.6493 71.4921 22.6493C72.2649 22.6493 73.0036 22.4528 73.7083 22.0597C74.4129 21.6666 75.0607 21.0849 75.6517 20.314V24.0593C74.3638 25.3694 72.8714 26.0247 71.1743 26.0247H71.1749ZM75.4249 20.0827H72.2881V17.3312H78.5157V25.9091H75.4244V20.0827H75.4249ZM90.6528 14.3026C90.6073 14.2254 90.4482 14.1061 90.1754 13.9442C89.9027 13.7824 89.5617 13.609 89.1525 13.424C88.7434 13.239 88.2965 13.0771 87.8115 12.9384C87.3264 12.7997 86.8413 12.7303 86.3567 12.7303C85.7203 12.7303 85.2279 12.8422 84.8792 13.0656C84.5305 13.2889 84.3564 13.6321 84.3564 14.094C84.3564 14.464 84.4887 14.7572 84.7542 14.9727C85.0192 15.1886 85.402 15.3773 85.9021 15.5392C86.4022 15.701 87.0159 15.8897 87.7433 16.1057C88.7734 16.3831 89.6676 16.7184 90.4249 17.1115C91.1828 17.5046 91.7619 18.0096 92.1638 18.626C92.5657 19.2424 92.7662 20.0596 92.7662 21.077C92.7662 22.0019 92.5993 22.7839 92.2661 23.4239C91.9329 24.0635 91.4819 24.5801 90.9136 24.9731C90.3454 25.3662 89.6976 25.6511 88.9702 25.8287C88.2428 26.0063 87.4927 26.0946 86.7199 26.0946C85.9321 26.0946 85.1251 26.0137 84.2996 25.8518C83.4741 25.6899 82.6821 25.4587 81.9243 25.1581C81.1669 24.8575 80.4695 24.4918 79.8331 24.0598L81.4697 20.7538C81.5301 20.8311 81.7275 20.9735 82.0607 21.1816C82.3939 21.3897 82.8072 21.6057 83.2995 21.829C83.7918 22.0524 84.3414 22.2489 84.9474 22.4186C85.5534 22.5884 86.1671 22.673 86.7881 22.673C87.4545 22.673 87.9509 22.5653 88.2769 22.3493C88.6029 22.1333 88.7656 21.8327 88.7656 21.4475C88.7656 21.0313 88.5951 20.7076 88.2542 20.4763C87.9132 20.2451 87.4514 20.037 86.8676 19.852C86.2844 19.6671 85.6138 19.459 84.856 19.2277C83.8708 18.9193 83.0567 18.5729 82.4125 18.1872C81.7688 17.802 81.2914 17.3317 80.9805 16.7767C80.67 16.2218 80.5145 15.5281 80.5145 14.6962C80.5145 13.5401 80.7836 12.5653 81.3214 11.7712C81.8592 10.9777 82.5829 10.3765 83.4922 9.96821C84.4014 9.55989 85.3938 9.35547 86.4698 9.35547C87.2272 9.35547 87.9587 9.44796 88.6633 9.63294C89.368 9.81792 90.0272 10.0491 90.6409 10.3266C91.2546 10.6041 91.8037 10.8816 92.2888 11.159L90.6522 14.3032L90.6528 14.3026ZM100.335 26.1403C99.3198 26.1403 98.4142 25.9706 97.6191 25.6316C96.8236 25.2927 96.153 24.8302 95.6075 24.2443C95.0619 23.6588 94.6492 22.9883 94.3687 22.2331C94.0882 21.478 93.9482 20.6839 93.9482 19.8515C93.9482 19.0039 94.0887 18.2025 94.3687 17.4468C94.6492 16.6916 95.0619 16.0211 95.6075 15.4356C96.153 14.8502 96.8236 14.3878 97.6191 14.0483C98.4147 13.7093 99.3198 13.5396 100.335 13.5396C101.35 13.5396 102.252 13.7093 103.04 14.0483C103.828 14.3878 104.495 14.8502 105.04 15.4356C105.586 16.0211 106.002 16.6916 106.29 17.4468C106.578 18.2025 106.722 19.0039 106.722 19.8515C106.722 20.6839 106.578 21.478 106.29 22.2331C106.003 22.9883 105.586 23.6588 105.04 24.2443C104.495 24.8302 103.828 25.2927 103.04 25.6316C102.252 25.9706 101.35 26.1403 100.335 26.1403ZM97.6754 19.8515C97.6754 20.4832 97.7932 21.0386 98.0277 21.5163C98.2628 21.994 98.5769 22.364 98.9711 22.6262C99.3652 22.8884 99.8193 23.0193 100.335 23.0193C100.835 23.0193 101.286 22.8848 101.687 22.6147C102.089 22.3445 102.403 21.9709 102.631 21.4932C102.858 21.0155 102.972 20.4679 102.972 19.8515C102.972 19.2198 102.858 18.6649 102.631 18.1872C102.403 17.7095 102.089 17.339 101.687 17.0773C101.286 16.8151 100.835 16.6843 100.335 16.6843C99.8198 16.6843 99.3652 16.8151 98.9711 17.0773C98.5769 17.3396 98.2628 17.7095 98.0277 18.1872C97.7927 18.6649 97.6754 19.2198 97.6754 19.8515ZM121.336 25.9091V16.1293L117.858 23.2505H115.813L112.336 16.1293V25.9091H108.608V9.49368H112.654L116.836 18.0716L121.041 9.49368H125.064V25.9091H121.336H121.336Z" fill="black"></path><path d="M37.5979 34.4209C37.6341 34.4461 37.6981 34.4766 37.7896 34.5118C37.8815 34.5475 37.99 34.5649 38.115 34.5649C38.2235 34.5649 38.3124 34.546 38.3821 34.5076C38.4513 34.4698 38.505 34.412 38.5428 34.3358C38.58 34.2596 38.6053 34.1608 38.6177 34.0388C38.6301 33.9174 38.6363 33.7714 38.6363 33.6016V32.0235H39.2118V33.5548C39.2118 33.7808 39.1988 33.9879 39.174 34.1744C39.1493 34.361 39.1007 34.5223 39.0284 34.6579C38.956 34.7935 38.847 34.898 38.7008 34.9716C38.5552 35.0452 38.3609 35.082 38.1191 35.082C37.9859 35.082 37.866 35.0662 37.7606 35.0352C37.6552 35.0042 37.5576 34.9574 37.4688 34.8954L37.5979 34.4204V34.4209ZM40.5296 32.024H41.1134L42.2018 35.0357H41.6098L41.3345 34.2848H40.3002L40.029 35.0357H39.4365L40.5291 32.024H40.5296ZM41.2301 33.8733L40.8215 32.6305L40.3958 33.8733H41.2296H41.2301ZM43.6447 35.0568C43.453 35.0568 43.2717 35.0173 43.1007 34.938C42.9297 34.8586 42.7794 34.7488 42.6503 34.609C42.5211 34.4692 42.4204 34.3058 42.348 34.1192C42.2757 33.9327 42.2396 33.7304 42.2396 33.5128C42.2396 33.3063 42.2757 33.1118 42.348 32.9295C42.4204 32.7471 42.5216 32.5868 42.6523 32.4481C42.783 32.3099 42.9359 32.2006 43.1111 32.1212C43.2862 32.0424 43.4768 32.0025 43.6824 32.0025C43.9603 32.0025 44.199 32.0624 44.3974 32.1827C44.5963 32.3025 44.7456 32.4618 44.8458 32.6599L44.416 32.9826C44.3411 32.8328 44.2357 32.7182 44.1014 32.6389C43.9666 32.56 43.8198 32.5201 43.6612 32.5201C43.5362 32.5201 43.4221 32.5474 43.3192 32.601C43.2164 32.6546 43.1276 32.7282 43.0522 32.8218C42.9773 32.9148 42.9194 33.0225 42.8791 33.1444C42.8388 33.2658 42.8187 33.3946 42.8187 33.5307C42.8187 33.6747 42.8404 33.8076 42.8832 33.9295C42.9261 34.0509 42.9876 34.1571 43.0666 34.2475C43.1462 34.3379 43.2387 34.4093 43.344 34.4619C43.4499 34.5139 43.5662 34.5402 43.6943 34.5402C43.8441 34.5402 43.9882 34.5008 44.1257 34.4214C44.2631 34.3421 44.3917 34.2264 44.5116 34.0735V34.6505C44.2641 34.9222 43.9748 35.0578 43.6442 35.0578L43.6447 35.0568ZM44.4702 33.9159H43.8741V33.487H44.9455V35.0357H44.4702V33.9159ZM45.4378 35.0357V32.024H46.5139C46.8363 32.024 47.1059 32.0913 47.3229 32.2253C47.5399 32.3598 47.7026 32.5406 47.8111 32.7687C47.9196 32.9962 47.9738 33.2485 47.9738 33.5259C47.9738 33.8313 47.9144 34.0972 47.7946 34.3237C47.6747 34.5496 47.5058 34.7252 47.2878 34.8497C47.0698 34.9742 46.812 35.0363 46.5144 35.0363H45.4383L45.4378 35.0357ZM47.3937 33.5254C47.3937 33.3304 47.3591 33.1586 47.2893 33.0099C47.2196 32.8617 47.1199 32.7456 46.9892 32.662C46.8585 32.579 46.6999 32.5369 46.5139 32.5369H46.0133V34.5223H46.5139C46.703 34.5223 46.8626 34.4792 46.9933 34.393C47.124 34.3068 47.2232 34.1881 47.2914 34.0367C47.3596 33.8854 47.3937 33.7151 47.3937 33.5254ZM48.4238 35.0357V32.024H48.9993V35.0357H48.4238ZM51.3803 32.8128C51.3612 32.7928 51.3255 32.766 51.2739 32.7324C51.2227 32.6983 51.1602 32.6657 51.0863 32.6347C51.013 32.6037 50.9329 32.5758 50.8466 32.5516C50.7604 32.528 50.6731 32.5154 50.5837 32.5154C50.4282 32.5154 50.3104 32.5453 50.2314 32.6047C50.1523 32.6641 50.1125 32.7477 50.1125 32.8549C50.1125 32.9368 50.1373 33.002 50.1875 33.0498C50.2376 33.0976 50.3125 33.1386 50.4127 33.1728C50.5129 33.207 50.6379 33.2437 50.7883 33.2832C50.983 33.3315 51.1519 33.3898 51.295 33.4592C51.4381 33.5286 51.5482 33.619 51.6246 33.7309C51.7011 33.8423 51.7393 33.99 51.7393 34.1739C51.7393 34.3352 51.7099 34.4729 51.652 34.5875C51.5936 34.702 51.513 34.7945 51.4102 34.8649C51.3074 34.9359 51.1907 34.9874 51.06 35.02C50.9293 35.0525 50.7903 35.0688 50.6431 35.0688C50.4959 35.0688 50.3486 35.0531 50.2009 35.0221C50.0536 34.9911 49.9116 34.9464 49.7752 34.8886C49.6393 34.8308 49.5138 34.7604 49.3996 34.6789L49.6538 34.1739C49.6791 34.1991 49.7235 34.2327 49.7871 34.2737C49.8511 34.3147 49.9291 34.3557 50.0206 34.3967C50.1125 34.4377 50.2122 34.4724 50.3207 34.5008C50.4292 34.5291 50.5387 34.5428 50.6503 34.5428C50.8058 34.5428 50.9241 34.516 51.0047 34.4624C51.0853 34.4088 51.1256 34.3326 51.1256 34.2333C51.1256 34.1429 51.0941 34.0719 51.03 34.021C50.966 33.97 50.8771 33.9259 50.7629 33.8875C50.6488 33.8491 50.5139 33.8076 50.3584 33.7624C50.1725 33.7088 50.0165 33.6489 49.8914 33.5822C49.7664 33.516 49.6734 33.4313 49.612 33.3299C49.5505 33.228 49.52 33.1008 49.52 32.9479C49.52 32.7413 49.568 32.5685 49.6641 32.4281C49.7602 32.2878 49.8899 32.1822 50.0542 32.1102C50.2179 32.0382 50.4003 32.002 50.6002 32.002C50.7392 32.002 50.8709 32.0172 50.9944 32.0482C51.1178 32.0792 51.2341 32.1202 51.3426 32.1712C51.4511 32.2221 51.5482 32.2773 51.6344 32.3367L51.3803 32.8118V32.8128ZM54.6622 32.024V35.0357H54.0909V33.7503H52.7482V35.0357H52.1727V32.024H52.7482V33.2416H54.0909V32.024H54.6622ZM58.0439 32.8128C58.0248 32.7928 57.9891 32.766 57.9375 32.7324C57.8863 32.6983 57.8238 32.6657 57.75 32.6347C57.6766 32.6037 57.5965 32.5758 57.5103 32.5516C57.424 32.528 57.3367 32.5154 57.2473 32.5154C57.0918 32.5154 56.974 32.5453 56.895 32.6047C56.816 32.6641 56.7762 32.7477 56.7762 32.8549C56.7762 32.9368 56.801 33.002 56.8511 33.0498C56.9012 33.0976 56.9761 33.1386 57.0763 33.1728C57.1765 33.207 57.3016 33.2437 57.4519 33.2832C57.6466 33.3315 57.8156 33.3898 57.9587 33.4592C58.1018 33.5286 58.2118 33.619 58.2883 33.7309C58.3647 33.8423 58.4029 33.99 58.4029 34.1739C58.4029 34.3352 58.3735 34.4729 58.3156 34.5875C58.2573 34.702 58.1767 34.7945 58.0739 34.8649C57.9711 34.9359 57.8543 34.9874 57.7236 35.02C57.5929 35.0525 57.454 35.0688 57.3067 35.0688C57.1595 35.0688 57.0123 35.0531 56.8645 35.0221C56.7173 34.9911 56.5752 34.9464 56.4388 34.8886C56.303 34.8308 56.1774 34.7604 56.0633 34.6789L56.3174 34.1739C56.3427 34.1991 56.3872 34.2327 56.4507 34.2737C56.5148 34.3147 56.5928 34.3557 56.6842 34.3967C56.7762 34.4377 56.8759 34.4724 56.9844 34.5008C57.0928 34.5291 57.2024 34.5428 57.314 34.5428C57.4695 34.5428 57.5878 34.516 57.6683 34.4624C57.7489 34.4088 57.7892 34.3326 57.7892 34.2333C57.7892 34.1429 57.7577 34.0719 57.6937 34.021C57.6296 33.97 57.5407 33.9259 57.4266 33.8875C57.3124 33.8491 57.1776 33.8076 57.0221 33.7624C56.8361 33.7088 56.6801 33.6489 56.5551 33.5822C56.43 33.516 56.3371 33.4313 56.2756 33.3299C56.2141 33.228 56.1836 33.1008 56.1836 32.9479C56.1836 32.7413 56.2317 32.5685 56.3278 32.4281C56.4238 32.2878 56.5535 32.1822 56.7178 32.1102C56.8816 32.0382 57.0639 32.002 57.2638 32.002C57.4028 32.002 57.5345 32.0172 57.658 32.0482C57.7815 32.0792 57.8977 32.1202 58.0062 32.1712C58.1147 32.2221 58.2118 32.2773 58.2981 32.3367L58.0439 32.8118V32.8128ZM61.3259 32.024V35.0357H60.7545V33.7503H59.4119V35.0357H58.8364V32.024H59.4119V33.2416H60.7545V32.024H61.3259ZM63.9988 34.5228V35.0363H61.9427V32.0245H63.961V32.538H62.5182V33.2632H63.7647V33.7382H62.5182V34.5228H63.9988ZM66.6634 32.5374H65.717V35.0363H65.1456V32.5374H64.1987V32.024H66.6634V32.5374ZM69.5202 32.024V35.0357H68.9488V33.7503H67.6062V35.0357H67.0307V32.024H67.6062V33.2416H68.9488V32.024H69.5202ZM72.9019 32.8128C72.8827 32.7928 72.8471 32.766 72.7954 32.7324C72.7443 32.6983 72.6818 32.6657 72.6079 32.6347C72.5345 32.6037 72.4545 32.5758 72.3682 32.5516C72.2819 32.528 72.1946 32.5154 72.1053 32.5154C71.9498 32.5154 71.832 32.5453 71.7529 32.6047C71.6739 32.6641 71.6341 32.7477 71.6341 32.8549C71.6341 32.9368 71.6589 33.002 71.709 33.0498C71.7591 33.0976 71.834 33.1386 71.9343 33.1728C72.0345 33.207 72.1595 33.2437 72.3098 33.2832C72.5046 33.3315 72.6735 33.3898 72.8166 33.4592C72.9597 33.5286 73.0697 33.619 73.1462 33.7309C73.2227 33.8423 73.2609 33.99 73.2609 34.1739C73.2609 34.3352 73.2314 34.4729 73.1736 34.5875C73.1152 34.702 73.0346 34.7945 72.9318 34.8649C72.829 34.9359 72.7123 34.9874 72.5816 35.02C72.4509 35.0525 72.3119 35.0688 72.1647 35.0688C72.0174 35.0688 71.8702 35.0531 71.7225 35.0221C71.5752 34.9911 71.4332 34.9464 71.2968 34.8886C71.1609 34.8308 71.0354 34.7604 70.9212 34.6789L71.1754 34.1739C71.2007 34.1991 71.2451 34.2327 71.3087 34.2737C71.3727 34.3147 71.4507 34.3557 71.5422 34.3967C71.6341 34.4377 71.7338 34.4724 71.8423 34.5008C71.9508 34.5291 72.0603 34.5428 72.1719 34.5428C72.3274 34.5428 72.4457 34.516 72.5263 34.4624C72.6069 34.4088 72.6472 34.3326 72.6472 34.2333C72.6472 34.1429 72.6157 34.0719 72.5516 34.021C72.4875 33.97 72.3987 33.9259 72.2845 33.8875C72.1703 33.8491 72.0355 33.8076 71.88 33.7624C71.694 33.7088 71.538 33.6489 71.413 33.5822C71.288 33.516 71.195 33.4313 71.1335 33.3299C71.0721 33.228 71.0416 33.1008 71.0416 32.9479C71.0416 32.7413 71.0896 32.5685 71.1857 32.4281C71.2818 32.2878 71.4115 32.1822 71.5757 32.1102C71.7395 32.0382 71.9219 32.002 72.1218 32.002C72.2608 32.002 72.3925 32.0172 72.516 32.0482C72.6394 32.0792 72.7557 32.1202 72.8641 32.1712C72.9726 32.2221 73.0697 32.2773 73.156 32.3367L72.9019 32.8118V32.8128ZM73.5151 33.5086C73.5151 33.3247 73.5476 33.1444 73.6132 32.9678C73.6783 32.7913 73.7739 32.6299 73.8989 32.4838C74.0239 32.3383 74.1768 32.2221 74.3576 32.136C74.5384 32.0498 74.7441 32.0067 74.975 32.0067C75.2472 32.0067 75.4828 32.0671 75.6817 32.189C75.8806 32.311 76.0288 32.4691 76.126 32.6641L75.6837 32.9736C75.6336 32.8606 75.5685 32.7708 75.488 32.7046C75.4074 32.6378 75.3211 32.5916 75.2297 32.5648C75.1377 32.538 75.0478 32.5243 74.9584 32.5243C74.8138 32.5243 74.6877 32.5537 74.5808 32.6131C74.4739 32.6725 74.384 32.7503 74.3117 32.8465C74.2393 32.9426 74.1861 33.0503 74.151 33.1691C74.1164 33.2879 74.0988 33.4066 74.0988 33.5254C74.0988 33.6584 74.1195 33.7861 74.1613 33.909C74.2032 34.032 74.2621 34.1408 74.3385 34.2359C74.415 34.3305 74.5069 34.4056 74.6139 34.4608C74.7208 34.516 74.8381 34.5433 74.9662 34.5433C75.0576 34.5433 75.1511 34.5281 75.2457 34.4971C75.3402 34.4661 75.4275 34.4167 75.5086 34.3484C75.5892 34.2806 75.6517 34.1928 75.6961 34.0856L76.1673 34.3615C76.1089 34.5113 76.0139 34.6384 75.8816 34.7435C75.7499 34.8481 75.6016 34.9275 75.4373 34.9811C75.2736 35.0347 75.1108 35.0615 74.9491 35.0615C74.7379 35.0615 74.5446 35.0168 74.3695 34.928C74.1944 34.8387 74.0435 34.7204 73.917 34.5717C73.7904 34.4235 73.6917 34.2564 73.621 34.0714C73.5502 33.8864 73.5145 33.6988 73.5145 33.5091L73.5151 33.5086ZM79.0448 32.024V35.0357H78.4734V33.7503H77.1307V35.0357H76.5553V32.024H77.1307V33.2416H78.4734V32.024H79.0448ZM80.9257 35.0573C80.7087 35.0573 80.5119 35.0152 80.3357 34.9301C80.1591 34.8455 80.0077 34.7299 79.8811 34.5843C79.7546 34.4388 79.6564 34.2748 79.5872 34.0919C79.5174 33.9096 79.4828 33.7225 79.4828 33.5296C79.4828 33.3289 79.5195 33.1371 79.5934 32.9547C79.6673 32.7724 79.7685 32.6094 79.8977 32.4665C80.0268 32.3236 80.1797 32.2106 80.3564 32.127C80.5331 32.0435 80.7268 32.002 80.9381 32.002C81.152 32.002 81.3472 32.0456 81.5239 32.1333C81.7006 32.2211 81.8514 32.3383 81.9765 32.4854C82.1015 32.6326 82.1986 32.7965 82.2683 32.9773C82.3381 33.1586 82.3727 33.3452 82.3727 33.5375C82.3727 33.7356 82.3365 33.9259 82.2642 34.1082C82.1919 34.2906 82.0911 34.4535 81.962 34.5964C81.8328 34.7393 81.6799 34.8518 81.5033 34.9333C81.3266 35.0152 81.1344 35.0562 80.9257 35.0562V35.0573ZM80.0666 33.5301C80.0666 33.6599 80.0862 33.7861 80.125 33.908C80.1637 34.0294 80.22 34.1376 80.2939 34.2322C80.3678 34.3268 80.4576 34.402 80.5651 34.4571C80.672 34.5123 80.794 34.5397 80.9303 34.5397C81.0693 34.5397 81.1933 34.5107 81.3013 34.4529C81.4097 34.3946 81.5001 34.3168 81.5725 34.2196C81.6448 34.1219 81.6996 34.0131 81.7373 33.8927C81.7745 33.7724 81.7936 33.6515 81.7936 33.5301C81.7936 33.4003 81.7734 33.2747 81.7331 33.1549C81.6928 33.0346 81.6355 32.9274 81.5621 32.8323C81.4883 32.7377 81.3984 32.6625 81.2909 32.6073C81.184 32.5522 81.0636 32.5248 80.9303 32.5248C80.7883 32.5248 80.6638 32.5537 80.5568 32.6115C80.4499 32.6699 80.36 32.7466 80.2882 32.8428C80.2159 32.9389 80.1611 33.0467 80.1234 33.1654C80.0862 33.2842 80.0671 33.4056 80.0671 33.5301H80.0666ZM84.0785 35.0573C83.8615 35.0573 83.6647 35.0152 83.4885 34.9301C83.3119 34.8455 83.1605 34.7299 83.0339 34.5843C82.9074 34.4388 82.8092 34.2748 82.74 34.0919C82.6702 33.9096 82.6356 33.7225 82.6356 33.5296C82.6356 33.3289 82.6723 33.1371 82.7462 32.9547C82.8201 32.7724 82.9213 32.6094 83.0505 32.4665C83.1796 32.3236 83.3325 32.2106 83.5092 32.127C83.6859 32.0435 83.8796 32.002 84.0909 32.002C84.3048 32.002 84.5 32.0456 84.6767 32.1333C84.8534 32.2211 85.0042 32.3383 85.1293 32.4854C85.2543 32.6326 85.3514 32.7965 85.4211 32.9773C85.4909 33.1586 85.5255 33.3452 85.5255 33.5375C85.5255 33.7356 85.4893 33.9259 85.417 34.1082C85.3447 34.2906 85.244 34.4535 85.1148 34.5964C84.9857 34.7393 84.8327 34.8518 84.6561 34.9333C84.4794 35.0152 84.2872 35.0562 84.0785 35.0562V35.0573ZM83.2194 33.5301C83.2194 33.6599 83.239 33.7861 83.2778 33.908C83.3165 34.0294 83.3728 34.1376 83.4467 34.2322C83.5206 34.3268 83.6105 34.402 83.7179 34.4571C83.8249 34.5123 83.9468 34.5397 84.0831 34.5397C84.2221 34.5397 84.3461 34.5107 84.4541 34.4529C84.5626 34.3946 84.653 34.3168 84.7253 34.2196C84.7976 34.1219 84.8524 34.0131 84.8901 33.8927C84.9273 33.7724 84.9464 33.6515 84.9464 33.5301C84.9464 33.4003 84.9262 33.2747 84.8859 33.1549C84.8457 33.0346 84.7883 32.9274 84.715 32.8323C84.6411 32.7377 84.5512 32.6625 84.4437 32.6073C84.3368 32.5522 84.2164 32.5248 84.0831 32.5248C83.9411 32.5248 83.8166 32.5537 83.7096 32.6115C83.6027 32.6699 83.5128 32.7466 83.441 32.8428C83.3687 32.9389 83.3139 33.0467 83.2762 33.1654C83.239 33.2842 83.2199 33.4056 83.2199 33.5301H83.2194ZM85.9677 35.0363V32.0245H86.5432V34.5234H88.0527V35.0368H85.9677V35.0363ZM90.5427 35.0573C90.3258 35.0573 90.1289 35.0152 89.9528 34.9301C89.7761 34.8455 89.6247 34.7299 89.4982 34.5843C89.3716 34.4388 89.2734 34.2748 89.2042 34.0919C89.1345 33.9096 89.0999 33.7225 89.0999 33.5296C89.0999 33.3289 89.1365 33.1371 89.2104 32.9547C89.2843 32.7724 89.3855 32.6094 89.5147 32.4665C89.6438 32.3236 89.7968 32.2106 89.9734 32.127C90.1501 32.0435 90.3438 32.002 90.5551 32.002C90.769 32.002 90.9643 32.0456 91.1409 32.1333C91.3176 32.2211 91.4685 32.3383 91.5935 32.4854C91.7185 32.6326 91.8156 32.7965 91.8854 32.9773C91.9551 33.1586 91.9897 33.3452 91.9897 33.5375C91.9897 33.7356 91.9536 33.9259 91.8812 34.1082C91.8089 34.2906 91.7082 34.4535 91.579 34.5964C91.4499 34.7393 91.297 34.8518 91.1203 34.9333C90.9436 35.0152 90.7514 35.0562 90.5427 35.0562V35.0573ZM89.6836 33.5301C89.6836 33.6599 89.7032 33.7861 89.742 33.908C89.7807 34.0294 89.837 34.1376 89.9109 34.2322C89.9848 34.3268 90.0747 34.402 90.1821 34.4571C90.2891 34.5123 90.411 34.5397 90.5474 34.5397C90.6863 34.5397 90.8103 34.5107 90.9183 34.4529C91.0268 34.3946 91.1172 34.3168 91.1895 34.2196C91.2618 34.1219 91.3166 34.0131 91.3543 33.8927C91.3915 33.7724 91.4106 33.6515 91.4106 33.5301C91.4106 33.4003 91.3905 33.2747 91.3502 33.1549C91.3099 33.0346 91.2525 32.9274 91.1792 32.8323C91.1053 32.7377 91.0154 32.6625 90.908 32.6073C90.801 32.5522 90.6807 32.5248 90.5474 32.5248C90.4053 32.5248 90.2808 32.5537 90.1739 32.6115C90.0669 32.6699 89.977 32.7466 89.9052 32.8428C89.8329 32.9389 89.7782 33.0467 89.7404 33.1654C89.7032 33.2842 89.6841 33.4056 89.6841 33.5301H89.6836ZM92.4319 35.0363V32.0245H94.4214V32.538H93.0074V33.3142H94.1832V33.7892H93.0074V35.0363H92.4319ZM98.1367 35.0363V33.0593L97.3779 34.5312H97.0565L96.2977 33.0593V35.0363H95.7222V32.0245H96.339L97.2146 33.7382L98.0985 32.0245H98.7112V35.0363H98.1357H98.1367ZM100.134 32.0245H100.718L101.807 35.0363H101.215L100.939 34.2853H99.9051L99.6339 35.0363H99.0413L100.134 32.0245H100.134ZM100.835 33.8738L100.426 32.631L100.001 33.8738H100.834H100.835ZM102.708 33.1018V35.0363H102.132V32.0245H102.591L104.122 34.0099V32.0288H104.697V35.0363H104.217L102.708 33.1018ZM106.119 32.0245H106.702L107.791 35.0363H107.199L106.924 34.2853H105.889L105.618 35.0363H105.026L106.118 32.0245H106.119ZM106.819 33.8738L106.411 32.631L105.985 33.8738H106.819H106.819ZM109.234 35.0573C109.042 35.0573 108.861 35.0179 108.69 34.9385C108.519 34.8592 108.369 34.7493 108.239 34.6095C108.11 34.4698 108.01 34.3063 107.937 34.1198C107.865 33.9332 107.829 33.7309 107.829 33.5133C107.829 33.3068 107.865 33.1124 107.937 32.93C108.01 32.7477 108.111 32.5874 108.241 32.4486C108.372 32.3104 108.525 32.2011 108.7 32.1218C108.875 32.0429 109.066 32.003 109.272 32.003C109.549 32.003 109.788 32.0629 109.987 32.1833C110.185 32.3031 110.335 32.4623 110.435 32.6604L110.005 32.9831C109.93 32.8333 109.825 32.7188 109.691 32.6394C109.556 32.5606 109.409 32.5206 109.25 32.5206C109.125 32.5206 109.011 32.548 108.908 32.6016C108.806 32.6552 108.717 32.7287 108.641 32.8223C108.566 32.9153 108.509 33.023 108.468 33.1449C108.428 33.2663 108.408 33.3951 108.408 33.5312C108.408 33.6752 108.429 33.8081 108.472 33.9301C108.515 34.0514 108.577 34.1576 108.656 34.248C108.735 34.3384 108.828 34.4098 108.933 34.4624C109.039 34.5144 109.155 34.5407 109.283 34.5407C109.433 34.5407 109.577 34.5013 109.715 34.4219C109.852 34.3426 109.981 34.227 110.101 34.074V34.6511C109.853 34.9227 109.564 35.0583 109.233 35.0583L109.234 35.0573ZM110.059 33.9164H109.463V33.4876H110.535V35.0363H110.059V33.9164ZM113.083 34.5228V35.0363H111.026V32.0245H113.045V32.538H111.602V33.2632H112.848V33.7382H111.602V34.5228H113.083ZM115.947 35.0363V33.0593L115.188 34.5312H114.867L114.108 33.0593V35.0363H113.532V32.0245H114.149L115.025 33.7382L115.909 32.0245H116.522V35.0363H115.946H115.947ZM119.196 34.5228V35.0363H117.14V32.0245H119.158V32.538H117.715V33.2632H118.962V33.7382H117.715V34.5228H119.196ZM120.222 33.1018V35.0363H119.646V32.0245H120.105L121.636 34.0099V32.0288H122.211V35.0363H121.731L120.222 33.1018ZM125.043 32.538H124.096V35.0368H123.525V32.538H122.578V32.0245H125.043V32.538Z" fill="white"></path></svg>